Genre:Thriller / Comedie / Actiune
Language:English
IMDb:http://www.imdb.com/title/tt1013743/
Source Video:Relizlab.Thanks
Source Audio:FLAWL3SS/3 Leg Greg.Thanks
Encoder: Tony2
............................................
General
Complete name : Knight.And.Day.2010.TS.XVID.FEEL-FREE
Format : AVI
Format/Info : Audio Video Interleave
File size : 1.19 GiB
Duration : 1h 44mn
Overall bit rate : 1 641 Kbps
............................................
Video
ID : 0
Format : MPEG-4 Visual
Format profile : Simple@L3
Format settings, BVOP : Yes
Format settings, QPel : No
Format settings, GMC : No warppoints
Format settings, Matrix : Default (H.263)
Codec ID : XVID
Codec ID/Hint : XviD
Duration : 1h 44mn
Bit rate : 1 500 Kbps
Width : 636 pixels
Height : 290 pixels
Display aspect ratio : 2.2:1
Frame rate : 29.970 fps
Resolution : 24 bits
Scan type : Progressive
Bits/(Pixel*Frame) : 0.271
Stream size : 1.09 GiB (91%)
...........................................
Audio
ID : 1
Format : MPEG Audio
Format version : Version 1
Format profile : Layer 3
Format settings, Mode : Joint stereo / MS Stereo
Codec ID : 55
Codec ID/Hint : MP3
Duration : 1h 44mn
Bit rate mode : Constant
Bit rate : 128 Kbps
Channel(s) : 2 channels
Sampling rate : 44.1 KHz
Resolution : 16 bits
Stream size : 95.4 MiB (8%)
Alignment : Aligned on interleaves
Interleave, duration : 26 ms (0.78 video frame)
Interleave, preload duration : 8960 ms
Writing library : LAME3.97
..........................................
Plot:
June Havens (Diaz) finds her everyday life tangled with that of a secret agent (Cruise) who has realized
...................................................